<?xml version="1.0" encoding="UTF-8"?>
<svg width="100" height="120" viewBox="0 0 100 120" xmlns="http://www.w3.org/2000/svg">
  <!-- Vespa Scooter - Back View -->
  
  <!-- Rear Tire -->
  <ellipse cx="50" cy="100" rx="20" ry="8" fill="#333" />
  
  <!-- Body - Main Part -->
  <rect x="35" y="30" width="30" height="60" rx="5" fill="none" stroke="#333" stroke-width="2" />
  
  <!-- Rear Fender -->
  <path d="M35 75 Q35 85 50 90 Q65 85 65 75" fill="none" stroke="#333" stroke-width="2" />
  
  <!-- Rear Light -->
  <rect x="41" y="78" width="18" height="5" rx="2" fill="#ff4444" stroke="#333" />
  
  <!-- License Plate Area -->
  <rect x="43" y="85" width="14" height="8" rx="1" fill="#eee" stroke="#333" />
  
  <!-- Seat - Back View -->
  <rect x="40" y="40" width="20" height="25" rx="5" fill="none" stroke="#333" stroke-width="1.5" />
  
  <!-- Exhaust -->
  <path d="M65 70 Q70 70 70 75 Q70 80 65 80" fill="none" stroke="#333" stroke-width="1.5" />
  
  <!-- Handles - Back View (just the ends) -->
  <line x1="30" y1="40" x2="33" y2="40" stroke="#333" stroke-width="2" />
  <line x1="70" y1="40" x2="67" y2="40" stroke="#333" stroke-width="2" />
  
  <!-- Rear Shocks -->
  <line x1="40" y1="65" x2="40" y2="90" stroke="#333" stroke-width="1.5" />
  <line x1="60" y1="65" x2="60" y2="90" stroke="#333" stroke-width="1.5" />
</svg>